<?xml version="1.0" standalone="no"?>
<!DOCTYPE svg PUBLIC "-//W3C//DTD SVG 1.1//EN" "http://www.w3.org/Graphics/SVG/1.1/DTD/svg11.dtd" >
<svg xmlns="http://www.w3.org/2000/svg" xmlns:xlink="http://www.w3.org/1999/xlink" version="1.1" viewBox="-10 0 266 256">
   <path fill="currentColor"
d="M150 32q-1 -1 1 -2q10 2 19 6q6 3 6 6q-4 3 -7 0q-1 -1 -11 -5q1 0 -1 -1q-5 -1 -7 -4zM63 42q1 2 4 5q2 4 4 5q1 1 1 6l-5 40q-2 16 -4 38q-3 15 -2 34q-1 9 5 18q1 4 3 11q0 2 1 2q-3 3 -5 1q-1 0 -3 -1q-4 -3 -4 -5q-3 -10 -8 -11q-3 -7 2 -10q6 2 6 -5q0 -12 1 -26
q0 -5 1 -8v-12q4 -37 3 -58q0 -21 -1 -21q-2 -3 1 -3zM113 98q1 -2 1 -3h-2q-16 5 -21 9q-4 2 1 8q0 1 2 3q1 2 2 2q1 -2 7 -6l3 -3l2 -3q0 -1 2 -3q3 -2 3 -4zM94 122q-2 1 -5 -3q-14 -13 -8 -24q1 -1 2 0q-1 5 3 7q0 -5 29 -12q3 1 4 -3q1 -3 3 -3q10 1 15 5q-1 1 -1 4
q-11 0 -16 7l-5 5h12q2 1 1 2q-5 5 -7 4q-9 1 -26 15q-3 3 -1 -4zM150 168q1 -1 4 -1q17 3 20 5q-1 6 -1 5q-3 0 -8 -1q-1 0 -2 -1q-12 -4 -27 -2q-22 4 -36 7q-11 2 -16 3q-2 3 -14 2q-2 0 -3 -1q0 -1 2 -2q2 0 7 -1q19 -4 35 -7q5 0 13 -1q19 -3 26 -5zM123 68q-7 5 -2 -2
q1 0 3 -2q0 -1 1 -2q-5 3 -20 7q-5 2 -11 2q-2 -1 -3 -1q-5 0 -1 -2q23 -5 48 -12q0 -4 -1 -6q-4 -22 -7 -25q-2 -3 1 -1q11 5 10 7q-1 4 0 19q0 3 1 4t3 0q1 -1 3 -1q0 -5 4 -5q10 2 16 5q0 3 -1 3q-14 0 -24 3q8 39 17 64q6 -17 6 -27q-1 -2 1 -1q1 2 5 5v3q-5 12 -10 25
q6 20 20 34q1 3 2 -5q-1 -5 1 -13q0 -4 1 -1q3 23 10 30q-2 -38 -3 -54q-1 -20 -1 -33q-1 -27 1 -39v-7q0 -12 -3 -16q-9 -11 -33 -10q-22 1 -47 8q-2 1 -3 1q-10 5 -21 4q-3 0 0 -2q3 1 13 -4q28 -9 57 -10q26 0 35 10q4 4 12 15q-5 -8 2 2q0 1 1 2q2 3 5 5q1 2 -2 4
q-3 3 -4 2q-4 -2 -4 6q-3 13 -4 26t0 36q1 33 2 48q1 18 3 28q0 4 1 9q1 7 3 14q-1 2 -5 1q-7 -6 -11 -11q-2 -2 -6 -4q-4 -3 -6 -5q-6 -4 -11 -10q-1 -2 -1 -3q-2 -2 1 0q10 9 23 15q7 3 8 2q1 -3 0 -12q-1 -7 -2 -11v-3q-6 4 -16 -11q-12 -16 -20 -34q-14 24 -36 27
q-3 0 0 -1q22 -8 33 -31q-11 -30 -17 -67q-7 3 -17 8zM151 128h-18q-22 5 -49 14q-11 5 -16 9q-5 0 -3 -4q1 -1 2 -3q1 -1 2 -3t2 -2t1 2q-1 3 5 1q33 -11 54 -16v-1q1 -4 2 -3q1 0 4 1q2 1 4 0q5 0 11 3q2 3 -1 2z" />
</svg>
