<?xml version="1.0" standalone="no"?>
<!DOCTYPE svg PUBLIC "-//W3C//DTD SVG 1.1//EN" "http://www.w3.org/Graphics/SVG/1.1/DTD/svg11.dtd" >
<svg xmlns="http://www.w3.org/2000/svg" xmlns:xlink="http://www.w3.org/1999/xlink" version="1.1" viewBox="-10 0 266 256">
   <path fill="currentColor"
d="M113 67q-12 -4 -57 22q-12 7 -24 2q-5 -1 0 -2q17 2 46 -17q12 -7 13 -11t6 -3q10 2 17 4q2 2 2 4q0 1 -3 1zM34 183q-8 5 -12 1q-1 -1 -1 -2t2 -1q30 -5 90 -65q6 -4 2 1q-38 45 -81 66zM73 110q-1 2 -1 3q-3 8 -5 11q-1 1 -1 2q-2 3 1 6q0 4 -4 2q-7 -5 -11 -15
q-2 -4 2 -2q0 1 2 2q5 3 6 2q4 -4 9 -12q3 -4 2 1zM97 83q3 3 8 6q1 2 1 3t-2 1q-2 2 -4 5q-1 2 -2 3q-11 27 -22 41q-5 5 -1 -1q11 -19 21 -48q1 -7 -1 -8q-4 -3 2 -2zM68 19q8 3 22 12q2 5 -1 5h-2q-6 -1 -9 -4q-2 -1 -4 -1q-2 2 -2 -3q1 -2 -4 -8q-3 -1 0 -1zM177 124
q-8 1 -24 6h-1q0 13 -1 21q8 3 13 -1h2q4 -2 11 -4v-22zM170 83q3 -1 6 0q7 6 15 10q2 1 2 3q-1 1 -3 2q-9 4 -7 8q-5 33 -2 69q2 30 12 52q1 2 -2 3t-3 -1q-3 -7 -10 -14q-9 -11 -14 -27q-2 -5 2 -1q5 12 15 19q1 1 2 1t1 -2q-3 -9 -4 -22q-1 -11 -2 -32q-20 6 -27 2
q-3 64 -26 77q-5 4 -1 -1q27 -25 24 -123q-2 -5 -4 -9q-5 -3 -9 -5q-3 -1 0 -6q2 -2 2 0q-4 9 19 9q4 2 1 6q-7 -4 -5 27q7 -4 25 -8v-30q-1 -4 -5 -5q-2 1 -5 2q-4 1 -9 2q-3 1 0 -1q2 0 6 -2zM151 -4q18 8 18 13v9q11 -3 12 -8q1 -2 5 -2q11 2 18 5q2 3 -3 4q-12 -2 -32 7
v15q7 -2 11 -2q5 3 0 7l-9 3q-2 1 -3 1q-1 3 -1 5q-2 12 -3 16q27 -4 47 -8q7 -1 7 -4q-1 -3 5 -2q5 3 17 6q3 1 2 4q0 1 -3 1q-40 -1 -57 6q-6 3 -2 -1q0 -2 -3 -1q-8 2 -13 2q-9 9 -12 3q-37 12 -50 9q-5 0 0 -2q11 2 52 -10q1 -3 3 -13q0 -4 1 -6q-12 5 -20 3q-2 0 -2 -1
q1 -1 3 -2q12 -4 20 -8q1 -5 1 -19q-22 6 -33 1q-4 -1 1 -2q15 1 32 -5q0 -16 -10 -22q-5 -3 1 -2z" />
</svg>
