<?xml version="1.0" standalone="no"?>
<!DOCTYPE svg PUBLIC "-//W3C//DTD SVG 1.1//EN" "http://www.w3.org/Graphics/SVG/1.1/DTD/svg11.dtd" >
<svg xmlns="http://www.w3.org/2000/svg" xmlns:xlink="http://www.w3.org/1999/xlink" version="1.1" viewBox="-10 0 266 256">
   <path fill="currentColor"
d="M131 73q3 1 10 5q-1 0 2 1q3 3 0 7t-3 8q24 -3 28 -9q1 -4 10 -1q27 8 31 12q4 6 -1 7q-8 3 -18 -5q-6 -9 -50 2q3 56 2 80q-1 23 -7 36q-2 8 -10 2q-16 -11 -28 -21q-5 -4 2 -1q12 8 30 9q6 0 7 -7q1 -18 0 -43t-3 -53q-19 4 -41 9l-8 2q-17 6 -27 1q-3 -1 -3 -2
q1 -1 4 -2q6 0 36 -6q23 -5 38 -8q-2 -13 -4 -20q-2 -3 -1 -3q1 -1 4 0zM71 141q31 9 28 19q-3 7 -10 2q-9 -10 -20 -19q-5 -4 2 -2zM104 14v-1q-2 0 -2 -1q1 -1 3 -2q16 5 26 15q24 -2 36 -1t25 5q6 2 19 13q3 8 -3 7q-6 -5 -18 -2q-6 1 -17 3q-19 2 -26 3q-4 1 -4 0
q0 -2 4 -3q26 -7 42 -12q3 -1 3 -3t-4 -4q-12 -3 -24 -3q-11 -1 -30 1q4 9 3 14q-1 4 -3 4t-6 -4q-2 0 -3 -1q-7 -6 -14 -7q-5 2 -12 3t-11 2q-5 3 -9 2q-2 0 -2 -1t2 -2q6 -2 19 -5q6 -1 9 -2q-2 -1 -1 -2l3 -1q5 1 7 -1q1 -1 -1 -4q-2 -1 -3 -2q-1 -3 -8 -8zM60 52
q2 -2 2 1q0 8 9 16q3 4 -1 7q-6 4 -8 -1q-14 -14 -2 -23z" />
</svg>
