<?xml version="1.0" standalone="no"?>
<!DOCTYPE svg PUBLIC "-//W3C//DTD SVG 1.1//EN" "http://www.w3.org/Graphics/SVG/1.1/DTD/svg11.dtd" >
<svg xmlns="http://www.w3.org/2000/svg" xmlns:xlink="http://www.w3.org/1999/xlink" version="1.1" viewBox="-10 0 266 256">
   <path fill="currentColor"
d="M129 -7q8 -4 11 -4q5 1 17 10q4 4 -2 7q-8 0 -7 15h2q15 -5 22 -6q5 -1 7 -3q3 -4 7 0q3 4 8 7q2 6 -3 6q-6 0 -14 4q-16 11 -32 18v10q13 -2 43 -7q7 -1 13 -2q2 -7 14 -3q8 5 17 10q3 4 0 6q-8 1 -16 -4q-9 -5 -18 -4q-15 0 -41 5q-6 1 -11 1v5q0 3 -1 3q-2 1 -4 -1
q-1 0 -3 -1l-3 -3q-8 2 -13 2q-1 3 1 3q0 7 -4 5q-1 0 -2 -1q-3 -2 -4 -5q-47 13 -71 22q-14 5 -25 2q-5 -1 0 -2q6 0 15 -2q4 -1 6 -2q28 -9 74 -20q-4 -4 -3 -7q3 -7 3 -17q-24 12 -28 17q-2 3 -3 3q-2 0 -2 -3q-8 -10 0 -16q3 -4 2 1t6 3q10 -1 25 -9q0 -16 -4 -22
q-4 -3 1 -2q7 2 8 8q0 2 1 6q0 5 1 6q6 -1 21 -7v-12q1 -8 2 -14q2 -6 -13 -3q-3 1 -3 0zM140 28q-3 1 -5 2q-12 3 -16 6v7q1 6 1 9q12 -2 19 -7q1 -5 1 -17zM129 53q-6 2 -9 2q-1 5 1 7q10 -2 12 -3q-2 -2 -4 -6zM147 24q-1 3 -2 10t-1 9q11 -6 27 -18q4 -3 6 -5q1 -2 0 -3
t-4 -1q-12 3 -26 8zM139 49q-1 1 -4 2l-3 1q5 6 8 5q0 -1 -1 -5v-3zM168 68q3 4 -2 5q-4 0 -11 5q-3 2 -7 6q-15 12 -26 19q27 -6 36 -12q6 -3 17 0q1 1 1 2t-1 1q-2 1 -4 1q-21 4 -42 10q9 4 8 15q11 -2 14 -7q0 -5 18 1q2 1 2 3q-1 1 -3 1q-3 1 -9 2q-16 4 -23 6
q-1 4 -2 9v9h3l3 -3q1 -2 2 -1q1 0 1 3q26 -4 31 -8q3 -1 10 1q0 1 1 1q9 3 15 7q1 1 0 3q0 1 -2 1q-5 1 -14 -5q-4 -2 -12 -1q-8 0 -31 5q-5 4 -8 8q15 16 48 43q7 6 20 6q24 0 40 7q4 2 -1 2q-11 -3 -18 -4q-8 -1 -22 -1q-9 1 -20 -7q-31 -27 -47 -41q-2 22 1 57
q1 10 2 16q0 3 -2 4q-2 2 -3 0q-6 -10 -18 -22q-3 -3 -2 -4q0 -1 3 1q7 5 15 6q0 -17 -2 -42v-16q-41 36 -56 41q-8 3 -1 -2q33 -18 55 -44q-2 -3 -3 -3q-23 5 -33 10q-8 4 -16 -1q-5 -1 0 -2q19 -2 53 -13q0 -12 -1 -16q-17 6 -28 7q-3 0 -3 -1t3 -2q12 -4 28 -10
q0 -5 -3 -15v-2q-6 2 -17 6q2 0 -3 1q-5 3 -13 1h-1q-3 -1 1 -2q7 -1 12 -5q27 -6 51 -35q5 -4 -1 -2q-31 16 -47 28q-5 5 -6 -1q-3 -12 7 -15q4 -2 2 1t0 4q1 2 4 0q23 -11 47 -22q4 -2 10 2z" />
</svg>
